# AST/ASF file generated using VICON BodyLanguage
# -----------------------------------------------
:version 1.10
:name VICON
:units
  mass 1.0
  length 0.45
  angle deg
:documentation
   .ast/.asf automatically generated from VICON data using
   VICON BodyBuilder and BodyLanguage model FoxedUp or BRILLIANT.MOD
:root
   order TX TY TZ RX RY RZ
   axis XYZ
   position 0 0 0  
   orientation 0 0 0 
:bonedata
  begin
     id 1 
     name lhipjoint
     direction 0.570549 -0.739093 0.358072 
     length 2.41801 
     axis 0 0 0  XYZ
  end
  begin
     id 2 
     name lfemur
     direction 0.34202 -0.939693 0  
     length 7.44434  
     axis 0 0 20  XYZ
    dof rx ry rz
    limits (-160.0 20.0)
           (-70.0 70.0)
           (-60.0 70.0)
  end
  begin
     id 3 
     name ltibia
     direction 0.34202 -0.939693 0   
     length 7.60047   
     axis 0 0 20   XYZ
    dof rx
    limits (-10.0 170.0)
  end
  begin
     id 4 
     name lfoot
     direction 0.0909041 -0.249757 0.964032   
     length 2.03437   
     axis -90 7.62852e-016 20   XYZ
    dof rx rz
    limits (-45.0 90.0)
           (-70.0 20.0)
  end
  begin
     id 5 
     name ltoes
     direction 1.53547e-011 -4.2174e-011 1   
     length 1.02054   
     axis -90 7.62852e-016 20   XYZ
    dof rx
    limits (-90.0 20.0)
  end
  begin
     id 6 
     name rhipjoint
     direction -0.558096 -0.746754 0.361784   
     length 2.3932  
     axis 0 0 0  XYZ 
  end
  begin
     id 7 
     name rfemur
     direction -0.34202 -0.939693 0   
     length 7.3886   
     axis 0 0 -20   XYZ
    dof rx ry rz
    limits (-160.0 20.0)
           (-70.0 70.0)
           (-70.0 60.0)
  end
  begin
     id 8 
     name rtibia
     direction -0.34202 -0.939693 0   
     length 7.4839   
     axis 0 0 -20   XYZ
    dof rx
    limits (-10.0 170.0)
 end
 begin
     id 9 
     name rfoot
     direction -0.114619 -0.314914 0.942174   
     length 2.25127  
     axis -90 -7.62852e-016 -20   XYZ
    dof rx rz
    limits (-45.0 90.0)
           (-20.0 70.0)
  end
  begin
     id 10 
     name rtoes
     direction -1.53518e-011 -4.21881e-011 1   
     length 1.11821   
     axis -90 -7.62852e-016 -20   XYZ
    dof rx
    limits (-90.0 20.0)
  end
  begin
     id 11 
     name lowerback
     direction -0.00902269 0.996426 -0.0839821   
     length 2.25052   
     axis 0 0 0   XYZ
    dof rx ry rz
    limits (-20.0 45.0)
           (-30.0 30.0)
           (-30.0 30.0)
  end
  begin
     id 12 
     name upperback
     direction 0.0370973 0.999169 -0.0168941   
     length 2.24876   
     axis 0 0 0   XYZ
    dof rx ry rz
    limits (-20.0 45.0)
           (-30.0 30.0)
           (-30.0 30.0)
  end
  begin
     id 13 
     name thorax
     direction 0.0402726 0.998931 0.0227027   
     length 2.26408   
     axis 0 0 0   XYZ
    dof rx ry rz
    limits (-20.0 45.0)
           (-30.0 30.0)
           (-30.0 30.0)
  end
  begin
     id 14 
     name lowerneck
     direction -0.0733697 0.98508 0.155675   
     length 1.58204   
     axis 0 0 0   XYZ
    dof rx ry rz
    limits (-20.0 45.0)
           (-30.0 30.0)
           (-30.0 30.0)
  end
  begin
     id 15 
     name upperneck
     direction 0.0426554 0.993501 -0.105526   
     length 1.61222   
     axis 0 0 0   XYZ
    dof rx ry rz
    limits (-20.0 45.0)
           (-30.0 30.0)
           (-30.0 30.0)
  end
  begin
     id 16
     name head
     direction 0.020792 0.998384 -0.0528868  
     length 1.61527  
     axis 0 0 0   XYZ
    dof rx ry rz
    limits (-20.0 45.0)
           (-30.0 30.0)
           (-30.0 30.0)
  end
  begin
     id 17 
     name lclavicle
     direction 0.967109 0.155462 -0.201325  
     length 3.59357  
     axis 0 0 0   XYZ
    dof ry rz
    limits (-20.0 10.0)
           (0.0 20.0)
  end
  begin
     id 18 
     name lhumerus
     direction 1 -4.48968e-011 2.38195e-027   
     length 5.38154   
     axis 180 -30 -90   XYZ
    dof rx ry rz
    limits (-60.0 90.0)
           (-90.0 90.0)
           (-90.0 90.0)
  end
  begin
     id 19
     name lradius
     direction 1 -4.48961e-011 4.85371e-027   
     length 3.33312   
     axis 180 -30 -90   XYZ
    dof rx
    limits (-10.0 170.0)
  end
  begin
     id 20
     name lwrist
     direction 1 -4.48961e-011 4.76515e-027   
     length 1.66656   
     axis -3.27502e-015 90 90   XYZ
    dof ry
    limits (-180.0 0.0)
 end
  begin
     id 21 
     name lhand
     direction 1 -4.48951e-011 9.53074e-027   
     length 0.710789   
     axis -6.08098e-015 90 90   XYZ
    dof rx rz
    limits (-90.0 90.0)
           (-45.0 45.0)
  end
  begin
     id 22 
     name lfingers
     direction 1 -4.48953e-011 1.90613e-026   
     length 0.573057   
     axis -1.21619e-014 90 90   XYZ
    dof rx
    limits (0.0 90.0)
  end
  begin
     id 23
     name lthumb
     direction 0.707107 -6.34973e-011 0.707107   
     length 0.822798   
     axis -90 45 -9.86923e-015   XYZ
    dof rx rz
    limits (-45.0 45.0)
           (-45.0 45.0)
  end
  begin
     id 24 
     name rclavicle
     direction -0.9585 0.265289 -0.104398   
     length 3.42039  
     axis 0 0 0   XYZ 
    dof ry rz
    limits (-10.0 20.0)
           (-20.0 0.0)
  end
  begin
     id 25 
     name rhumerus
     direction -1 -4.48977e-011 2.21478e-027  
     length 5.16954   
     axis 180 30 90   XYZ
    dof rx ry rz
    limits (-90.0 60.0)
           (-90.0 90.0)
           (-90.0 90.0)
  end
  begin
     id 26 
     name rradius
     direction -1 -4.48967e-011 5.63677e-027   
     length 3.38287   
     axis 180 30 90   XYZ
    dof rx
    limits (-10.0 170.0)
  end
  begin
     id 27 
     name rwrist
     direction -1 -4.48967e-011 4.76501e-027   
     length 1.69144   
     axis -3.27502e-015 -90 -90   XYZ
    dof ry
    limits (-180.0 0.0)
  end
  begin
     id 28
     name rhand
     direction -1 -4.48902e-011 9.53292e-027   
     length 0.817967   
     axis -6.08098e-015 -90 -90   XYZ
    dof rx rz
    limits (-90.0 90.0)
           (-45.0 45.0)
  end
  begin
     id 29
     name rfingers
     direction -1 -4.49012e-011 1.90561e-026   
     length 0.659466   
     axis -1.21619e-014 -90 -90   XYZ
    dof rx
    limits (0.0 90.0)
  end
  begin
     id 30
     name rthumb
     direction -0.707107 -6.34944e-011 0.707107   
     length 0.946865   
     axis -90 -45 9.86923e-015   XYZ
    dof rx rz
    limits (-45.0 45.0)
           (-45.0 45.0)
  end
:hierarchy
  begin
    root lhipjoint rhipjoint lowerback
    lhipjoint lfemur
    lfemur ltibia
    ltibia lfoot
    lfoot ltoes
    rhipjoint rfemur
    rfemur rtibia
    rtibia rfoot
    rfoot rtoes
    lowerback upperback
    upperback thorax
    thorax lowerneck lclavicle rclavicle
    lowerneck upperneck
    upperneck head
    lclavicle lhumerus
    lhumerus lradius
    lradius lwrist
    lwrist lhand lthumb
    lhand lfingers
    rclavicle rhumerus
    rhumerus rradius
    rradius rwrist
    rwrist rhand rthumb
    rhand rfingers
  end

#!OML:ASF F:\twosubjects\two\wednesday\Session 1\Justin1.ASF
:FULLY-SPECIFIED
:DEGREES
860
root 5.9965 17.4323 1.58425 -183.482 184.445 -536.327
lowerback 8.26858 1.43262 -4.56634
upperback 2.72866 1.56589 1.34759
thorax -1.96279 0.774708 3.81073
lowerneck -21.0987 -3.64205 -7.95716
upperneck 21.7592 -3.83296 5.22935
head 10.7613 -1.77414 2.61938
rclavicle 1.11319e-014 -1.27222e-014
rhumerus 35.8564 16.0745 -60.2113
rradius 34.782
rwrist 1.36068
rhand -20.4981 31.2113
rfingers 7.12502
rthumb 5.85892 1.31228
lclavicle 1.11319e-014 -1.27222e-014
lhumerus 26.9958 -11.0419 56.0647
lradius 40.0114
lwrist -20.226
lhand -8.45149 30.8234
lfingers 7.12502
lthumb 17.4744 60.058
rfemur -26.3422 -8.26458 9.61515
rtibia 58.0208
rfoot -10.6133 -4.18906
rtoes -5.4051
lfemur -13.3721 -2.85033 -16.3875
ltibia 31.2381
lfoot -12.2241 -3.33956
ltoes -8.20752
861
root 5.95626 17.4166 1.67812 -183.339 184.022 -536.6
lowerback 8.43815 1.29458 -4.24473
upperback 2.54358 1.40045 1.39017
thorax -2.22649 0.701911 3.68597
lowerneck -20.3979 -3.35147 -7.94394
upperneck 21.4791 -3.48996 5.27329
head 10.5018 -1.61878 2.68642
rclavicle -9.93923e-017 -1.59028e-015
rhumerus 35.5963 16.1762 -60.4318
rradius 34.9515
rwrist 1.5579
rhand -20.4426 31.0733
rfingers 7.12502
rthumb 5.91252 1.17578
lclavicle -9.93923e-017 -1.59028e-015
lhumerus 26.4974 -10.9537 55.8336
lradius 40.021
lwrist -20.2796
lhand -8.85786 30.6467
lfingers 7.12502
lthumb 17.0833 59.9156
rfemur -26.1818 -7.67614 9.60799
rtibia 55.2298
rfoot -10.8969 -4.07348
rtoes -5.63828
lfemur -13.3548 -2.38141 -15.985
ltibia 31.41
lfoot -12.5122 -3.93068
ltoes -9.2663
862
root 5.90338 17.4126 1.75688 -182.996 183.538 -537.964
lowerback 8.60025 1.11843 -2.94639
upperback 2.3994 1.28222 1.80929
thorax -2.43844 0.646776 3.3972
lowerneck -20.7836 -3.50395 -7.991
upperneck 21.6009 -3.64056 5.19911
head 10.6297 -1.69613 2.64376
rclavicle 4.02539e-015 -1.27222e-014
rhumerus 35.6912 16.4854 -59.9167
rradius 35.1285
rwrist 1.1593
rhand -20.4854 30.8271
rfingers 7.12502
rthumb 5.87116 0.92844
lclavicle 4.02539e-015 -1.27222e-014
lhumerus 26.1487 -10.6818 55.8645
lradius 40.194
lwrist -20.4304
lhand -8.68492 31.1094
lfingers 7.12502
lthumb 17.2497 60.3639
rfemur -25.9798 -6.70367 10.9082
rtibia 52.2519
rfoot -10.8221 -4.42215
rtoes -6.49411
lfemur -13.5372 -2.02733 -14.2551
ltibia 31.5422
lfoot -12.8505 -4.75879
ltoes -9.48445
863
root 5.85148 17.4204 1.84871 -182.67 182.919 -538.216
lowerback 8.36276 1.00649 -2.8056
upperback 2.5129 1.15665 2.00904
thorax -2.18053 0.577806 3.54247
lowerneck -20.5371 -3.40274 -8.37003
upperneck 21.0234 -3.37066 5.17725
head 10.3609 -1.6047 2.73338
rclavicle 1.15295e-014 2.78299e-014
rhumerus 36.1946 16.4862 -59.2245
rradius 35.2198
rwrist 0.83946
rhand -20.3468 30.9326
rfingers 7.12502
rthumb 6.00496 1.03765
lclavicle 1.15295e-014 2.78299e-014
lhumerus 26.2194 -10.1046 56.0342
lradius 40.3598
lwrist -20.3515
lhand -8.43282 31.1457
lfingers 7.12502
lthumb 17.4923 60.3788
rfemur -25.7339 -5.86403 10.7922
rtibia 49.1727
rfoot -10.4708 -4.54417
rtoes -7.19919
lfemur -13.6972 -2.10482 -13.8362
ltibia 31.6886
lfoot -13.3143 -5.17153
ltoes -10.1977
864
root 5.80123 17.4293 1.95294 -182.617 182.203 -537.632
lowerback 8.28005 0.87536 -3.40954
upperback 2.55514 0.931991 1.88088
thorax -2.07847 0.464106 3.77536
lowerneck -20.4941 -3.34188 -8.2881
upperneck 20.8416 -3.24351 4.91699
head 10.2716 -1.56969 2.64282
rclavicle -5.36719e-015 -6.36111e-015
rhumerus 36.4452 16.535 -59.0532
rradius 35.2025
rwrist 0.739163
rhand -20.333 31.2895
rfingers 7.12502
rthumb 6.01831 1.39495
lclavicle -5.36719e-015 -6.36111e-015
lhumerus 26.0592 -9.63285 56.018
lradius 40.4065
lwrist -20.6573
lhand -8.21933 31.1581
lfingers 7.12502
lthumb 17.6978 60.3727
rfemur -25.1321 -5.22949 9.61417
rtibia 46.0016
rfoot -9.75238 -4.21456
rtoes -10.168
lfemur -13.5677 -2.35508 -14.4255
ltibia 31.8193
lfoot -13.7383 -5.26805
ltoes -11.0278
865
root 5.74387 17.4305 2.05557 -182.701 181.362 -537.434
lowerback 8.51406 0.666787 -3.62012
upperback 2.47923 0.62819 1.80423
thorax -2.25995 0.31821 3.84487
lowerneck -20.2316 -3.28939 -8.0248
upperneck 20.795 -3.18568 4.55927
head 10.1912 -1.5675 2.47999
rclavicle -4.07509e-015 -2.38542e-015
rhumerus 36.4206 16.7686 -59.083
rradius 35.2605
rwrist 0.572903
rhand -20.4477 31.6442
rfingers 7.12502
rthumb 5.90758 1.74657
lclavicle -4.07509e-015 -2.38542e-015
lhumerus 25.6982 -9.41639 55.8196
lradius 40.4106
lwrist -21.0718
lhand -7.98113 31.6048
lfingers 7.12502
lthumb 17.927 60.7985
rfemur -24.2288 -4.46934 8.80401
rtibia 42.8536
rfoot -9.01113 -3.52257
rtoes -14.001
lfemur -13.2923 -2.51526 -14.5766
ltibia 31.9059
lfoot -14.0766 -5.52991
ltoes -12.6688
866
root 5.68574 17.431 2.1505 -182.514 180.565 -537.866
lowerback 8.51929 0.480506 -3.21179
upperback 2.47921 0.41986 1.96248
thorax -2.24237 0.213296 3.80018
lowerneck -20.4847 -3.27191 -7.67602
upperneck 20.8576 -3.09531 3.93972
head 10.2382 -1.56999 2.21284
rclavicle -1.98785e-015 -1.11319e-014
rhumerus 36.5057 16.8485 -58.7729
rradius 35.6173
rwrist 0.431832
rhand -20.5473 31.6893
rfingers 7.12502
rthumb 5.8114 1.78902
lclavicle -1.98785e-015 -1.11319e-014
lhumerus 25.6087 -9.26417 55.6344
lradius 40.513
lwrist -20.6735
lhand -8.14214 31.9832
lfingers 7.12502
lthumb 17.7721 61.191
rfemur -23.5629 -3.26171 8.58849
rtibia 39.8288
rfoot -8.56918 -2.6949
rtoes -12.2868
lfemur -13.4145 -2.7406 -13.9927
ltibia 32.022
lfoot -14.39 -5.80829
ltoes -13.85
867
root 5.625 17.4188 2.24192 -182.265 179.787 -538.575
lowerback 8.39782 0.374523 -2.47799
upperback 2.52837 0.349172 2.17008
thorax -2.11613 0.173929 3.60752
lowerneck -20.7286 -3.3127 -7.08605
upperneck 20.7014 -3.11803 3.14664
head 10.2047 -1.62444 1.82543
rclavicle -3.97569e-015 -1.59028e-015
rhumerus 36.761 16.7983 -58.1737
rradius 35.8774
rwrist 0.118039
rhand -20.7048 31.523
rfingers 7.12502
rthumb 5.65934 1.6186
lclavicle -3.97569e-015 -1.59028e-015
lhumerus 25.7226 -9.02884 55.6155
lradius 40.5978
lwrist -20.389
lhand -8.29722 32.2889
lfingers 7.12502
lthumb 17.6228 61.5103
rfemur -22.9208 -1.847 8.71005
rtibia 36.8847
rfoot -8.17824 -2.22267
rtoes -10.8128
lfemur -13.6508 -2.94359 -13.0635
ltibia 32.1951
lfoot -14.9674 -5.95382
ltoes -16.0595
868
root 5.56081 17.3972 2.33427 -182.168 178.952 -538.863
lowerback 8.38895 0.256826 -2.14815
upperback 2.56397 0.222065 2.22773
thorax -2.0636 0.10906 3.49334
lowerneck -20.368 -3.36898 -7.09014
upperneck 20.2459 -3.20375 3.09904
head 9.97945 -1.6681 1.79674
rclavicle 1.26228e-014 -5.56597e-015
rhumerus 36.8601 16.7047 -57.9579
rradius 35.9943
rwrist -0.03354
rhand -20.8175 31.6183
rfingers 7.12502
rthumb 5.55052 1.71099
lclavicle 1.26228e-014 -5.56597e-015
lhumerus 25.7402 -8.51017 55.765
lradius 40.5093
lwrist -20.9541
lhand -8.23545 32.3098
lfingers 7.12502
lthumb 17.6823 61.5258
rfemur -22.2352 -0.824911 8.50772
rtibia 34.2879
rfoot -7.45116 -2.01925
rtoes -14.4188
lfemur -13.7551 -3.05266 -12.618
ltibia 32.5433
lfoot -15.7236 -5.9454
ltoes -20.8138
869
root 5.4987 17.3943 2.43366 -182.053 178.087 -538.852
lowerback 8.2732 0.0950572 -2.16758
upperback 2.62433 0.00852959 2.28695
thorax -1.92053 -0.000437047 3.58652
lowerneck -19.9348 -3.40601 -7.78061
upperneck 19.6788 -3.19991 3.65438
head 9.72141 -1.65203 2.10692
rclavicle 3.77691e-015 0
rhumerus 36.9519 16.7669 -57.7124
rradius 36.2225
rwrist -0.0752897
rhand -20.956 31.6557
rfingers 7.12502
rthumb 5.41682 1.74494
lclavicle 3.77691e-015 0
lhumerus 25.6784 -7.93421 55.8753
lradius 40.4478
lwrist -21.1979
lhand -8.1941 32.1238
lfingers 7.12502
lthumb 17.7221 61.3362
rfemur -21.6596 0.198312 7.85087
rtibia 32.1285
rfoot -6.60387 -1.88026
rtoes -14.2085
lfemur -13.9782 -3.15229 -12.497
ltibia 33.0375
lfoot -16.2351 -6.28972
ltoes -21.935
